<svg width="44" height="44" viewBox="0 0 88 88" fill="currentColor" xmlns="http://www.w3.org/2000/svg">
<g clip-path="url(#clip0_58_160)">
<path d="M16 64H24V72H16V64Z" />
<path d="M8 72H16V80H8V72Z" />
<path d="M0 80H8V88H0V80Z" />
<path d="M24 56H32V64H24V56Z" />
<path d="M16 16H24V24H16V16Z" />
<path d="M24 24H32V32H24V24Z" />
<path d="M8 8H16V16H8V8Z" />
<path d="M0 0H8V8H0V0Z" />
<path d="M72 64H64V72H72V64Z" />
<path d="M48 16H40V32H48V16Z" />
<path d="M56 32H48V40H56V32Z" />
<path d="M40 48H32V56H40V48Z" />
<path d="M72 40H56V48H72V40Z" />
<path d="M40 32H32V40H40V32Z" />
<path d="M56 48H48V56H56V48Z" />
<path d="M32 40H16V48H32V40Z" />
<path d="M48 56H40V72H48V56Z" />
<path d="M64 56H56V64H64V56Z" />
<path d="M80 72H72V80H80V72Z" />
<path d="M88 80H80V88H88V80Z" />
<path d="M64 24H56V32H64V24Z" />
<path d="M72 16H64V24H72V16Z" />
<path d="M72 8H80V16H72V8Z" />
<path d="M80 0H88V8H80V0Z" />
</g>
<defs>
<clipPath id="clip0_58_160">
<rect width="88" height="88" fill="white"/>
</clipPath>
</defs>
</svg>
